<?xml version="1.0" encoding="UTF-8" standalone="no"?>
<svg
   xmlns:dc="http://purl.org/dc/elements/1.1/"
   xmlns:cc="http://creativecommons.org/ns#"
   xmlns:rdf="http://www.w3.org/1999/02/22-rdf-syntax-ns#"
   xmlns:svg="http://www.w3.org/2000/svg"
   xmlns="http://www.w3.org/2000/svg"
   xmlns:sodipodi="http://sodipodi.sourceforge.net/DTD/sodipodi-0.dtd"
   xmlns:inkscape="http://www.inkscape.org/namespaces/inkscape"
   version="1.1"
   id="whatsapp-logo-notext"
   x="0px"
   y="0px"
   viewBox="0 0 800 800"
   xml:space="preserve"
   sodipodi:docname="icon.svg"
   width="800"
   height="800"
   inkscape:version="0.92.3 (2405546, 2018-03-11)"><metadata
     id="metadata13"><rdf:RDF><cc:Work
         rdf:about=""><dc:format>image/svg+xml</dc:format><dc:type
           rdf:resource="http://purl.org/dc/dcmitype/StillImage" /><dc:title></dc:title></cc:Work></rdf:RDF></metadata><defs
     id="defs11"><radialGradient
       gradientUnits="userSpaceOnUse"
       gradientTransform="matrix(0.762,0.034,-0.05,1.12,11560.893,10069.103)"
       r="450.875"
       fx="-14509.281"
       cy="-8329.0791"
       cx="-14480.522"
       id="radial-gradient"><stop
         id="stop1135"
         stop-color="#ffea00"
         offset="0.045" /><stop
         id="stop1137"
         stop-color="#ffde00"
         offset="0.12" /><stop
         id="stop1139"
         stop-color="#ffbf00"
         offset="0.254" /><stop
         id="stop1141"
         stop-color="#ff8e00"
         offset="0.429" /><stop
         id="stop1143"
         stop-color="#ff272d"
         offset="0.769" /><stop
         id="stop1145"
         stop-color="#e0255a"
         offset="0.872" /><stop
         id="stop1147"
         stop-color="#cc2477"
         offset="0.953" /><stop
         id="stop1149"
         stop-color="#c42482"
         offset="1" /></radialGradient><radialGradient
       gradientUnits="userSpaceOnUse"
       gradientTransform="matrix(1.225,0,0,1.225,9921.963,9899.103)"
       r="791.229"
       cy="-7921.6079"
       cx="-7529.6689"
       id="radial-gradient-2"><stop
         id="stop1152"
         stop-color="#00ccda"
         offset="0" /><stop
         id="stop1154"
         stop-color="#0083ff"
         offset="0.22" /><stop
         id="stop1156"
         stop-color="#007af9"
         offset="0.261" /><stop
         id="stop1158"
         stop-color="#0060e8"
         offset="0.33" /><stop
         id="stop1160"
         stop-color="#005fe7"
         offset="0.333" /><stop
         id="stop1162"
         stop-color="#2639ad"
         offset="0.438" /><stop
         id="stop1164"
         stop-color="#401e84"
         offset="0.522" /><stop
         id="stop1166"
         stop-color="#4a1475"
         offset="0.566" /></radialGradient><linearGradient
       gradientUnits="userSpaceOnUse"
       y2="104.96"
       x2="384.23099"
       y1="731.18799"
       x1="575.66901"
       id="linear-gradient"><stop
         id="stop1169"
         stop-opacity="0.4"
         stop-color="#000f43"
         offset="0" /><stop
         id="stop1171"
         stop-opacity="0.173"
         stop-color="#001962"
         offset="0.485" /><stop
         id="stop1173"
         stop-opacity="0"
         stop-color="#002079"
         offset="1" /></linearGradient><radialGradient
       gradientUnits="userSpaceOnUse"
       gradientTransform="matrix(1.219,0.123,-0.123,1.219,10296.265,9597.23)"
       r="266.88599"
       cy="-6516.5562"
       cx="-8260.9404"
       id="radial-gradient-3"><stop
         id="stop1176"
         stop-color="#ffea00"
         offset="0.003" /><stop
         id="stop1178"
         stop-color="#ff272d"
         offset="0.497" /><stop
         id="stop1180"
         stop-color="#c42482"
         offset="1" /></radialGradient><radialGradient
       gradientUnits="userSpaceOnUse"
       gradientTransform="matrix(1.219,0.123,-0.123,1.219,10296.265,9597.23)"
       r="445.67801"
       cy="-6772.4678"
       cx="-8285.0869"
       id="radial-gradient-4"><stop
         id="stop1183"
         stop-color="#ffe900"
         offset="0.003" /><stop
         id="stop1185"
         stop-color="#ffaf0e"
         offset="0.157" /><stop
         id="stop1187"
         stop-color="#ff7a1b"
         offset="0.316" /><stop
         id="stop1189"
         stop-color="#ff4e26"
         offset="0.472" /><stop
         id="stop1191"
         stop-color="#ff2c2e"
         offset="0.621" /><stop
         id="stop1193"
         stop-color="#ff1434"
         offset="0.762" /><stop
         id="stop1195"
         stop-color="#ff0538"
         offset="0.892" /><stop
         id="stop1197"
         stop-color="#ff0039"
         offset="1" /></radialGradient><radialGradient
       gradientUnits="userSpaceOnUse"
       gradientTransform="matrix(1.219,0.123,-0.123,1.219,10296.265,9597.23)"
       r="408.95801"
       cy="-6359.332"
       cx="-8222.0508"
       id="radial-gradient-5"><stop
         id="stop1200"
         stop-color="#ff272d"
         offset="0.003" /><stop
         id="stop1202"
         stop-color="#c42482"
         offset="0.497" /><stop
         id="stop1204"
         stop-color="#620700"
         offset="0.986" /></radialGradient><radialGradient
       gradientUnits="userSpaceOnUse"
       r="782.17999"
       fy="382.2124"
       fx="778.1665"
       cy="396.04099"
       cx="750.18903"
       id="radial-gradient-6"><stop
         id="stop1207"
         stop-color="#ffea00"
         offset="0.156" /><stop
         id="stop1209"
         stop-color="#ffde00"
         offset="0.231" /><stop
         id="stop1211"
         stop-color="#ffbf00"
         offset="0.365" /><stop
         id="stop1213"
         stop-color="#ff8e00"
         offset="0.541" /><stop
         id="stop1215"
         stop-color="#ff272d"
         offset="0.763" /><stop
         id="stop1217"
         stop-color="#f92433"
         offset="0.796" /><stop
         id="stop1219"
         stop-color="#e91c45"
         offset="0.841" /><stop
         id="stop1221"
         stop-color="#cf0e62"
         offset="0.893" /><stop
         id="stop1223"
         stop-color="#b5007f"
         offset="0.935" /></radialGradient><radialGradient
       gradientUnits="userSpaceOnUse"
       r="923.61499"
       cy="3.289"
       cx="691.33899"
       id="radial-gradient-7"><stop
         id="stop1226"
         stop-color="#ffea00"
         offset="0.279" /><stop
         id="stop1228"
         stop-color="#fd0"
         offset="0.402" /><stop
         id="stop1230"
         stop-color="#ffba00"
         offset="0.63" /><stop
         id="stop1232"
         stop-color="#ff9100"
         offset="0.856" /><stop
         id="stop1234"
         stop-color="#ff6711"
         offset="0.933" /><stop
         id="stop1236"
         stop-color="#ff4a1d"
         offset="0.994" /></radialGradient><linearGradient
       gradientUnits="userSpaceOnUse"
       gradientTransform="matrix(1.219,0.123,-0.123,1.219,10296.265,9597.23)"
       y2="-6750.2261"
       x2="-8660.2891"
       y1="-6677.7422"
       x1="-8944.6504"
       id="linear-gradient-2"><stop
         id="stop1239"
         stop-opacity="0.5"
         stop-color="#c42482"
         offset="0" /><stop
         id="stop1241"
         stop-opacity="0.5"
         stop-color="#ff272d"
         offset="0.474" /><stop
         id="stop1243"
         stop-opacity="0.513"
         stop-color="#ff2c2c"
         offset="0.486" /><stop
         id="stop1245"
         stop-opacity="0.72"
         stop-color="#ff7a1a"
         offset="0.675" /><stop
         id="stop1247"
         stop-opacity="0.871"
         stop-color="#ffb20d"
         offset="0.829" /><stop
         id="stop1249"
         stop-opacity="0.964"
         stop-color="#ffd605"
         offset="0.942" /><stop
         id="stop1251"
         stop-color="#ffe302"
         offset="1" /></linearGradient><linearGradient
       gradientUnits="userSpaceOnUse"
       gradientTransform="matrix(0.995,0.1,-0.1,0.995,-173.696,1313.941)"
       y2="-1221.859"
       x2="190.77499"
       y1="-1082.012"
       x1="245.347"
       id="linear-gradient-3"><stop
         id="stop1254"
         stop-opacity="0.6"
         stop-color="#891551"
         offset="0" /><stop
         id="stop1256"
         stop-opacity="0"
         stop-color="#c42482"
         offset="1" /></linearGradient><linearGradient
       gradientUnits="userSpaceOnUse"
       gradientTransform="matrix(0.995,0.1,-0.1,0.995,305.439,-246.471)"
       y2="825.71399"
       x2="116.148"
       y1="718.82703"
       x1="22.040001"
       id="linear-gradient-4"><stop
         id="stop1259"
         stop-opacity="0.5"
         stop-color="#891551"
         offset="0.005" /><stop
         id="stop1261"
         stop-opacity="0.5"
         stop-color="#ff272d"
         offset="0.484" /><stop
         id="stop1263"
         stop-opacity="0"
         stop-color="#ff272d"
         offset="1" /></linearGradient><linearGradient
       gradientUnits="userSpaceOnUse"
       gradientTransform="matrix(0.995,0.1,-0.1,0.995,305.439,-246.471)"
       y2="829.83502"
       x2="200.17101"
       y1="904.61603"
       x1="200.104"
       id="linear-gradient-5"><stop
         id="stop1266"
         stop-color="#c42482"
         offset="0" /><stop
         id="stop1268"
         stop-opacity="0.81"
         stop-color="#c42482"
         offset="0.083" /><stop
         id="stop1270"
         stop-opacity="0.565"
         stop-color="#c42482"
         offset="0.206" /><stop
         id="stop1272"
         stop-opacity="0.362"
         stop-color="#c42482"
         offset="0.328" /><stop
         id="stop1274"
         stop-opacity="0.204"
         stop-color="#c42482"
         offset="0.447" /><stop
         id="stop1276"
         stop-opacity="0.091"
         stop-color="#c42482"
         offset="0.562" /><stop
         id="stop1278"
         stop-opacity="0.023"
         stop-color="#c42482"
         offset="0.673" /><stop
         id="stop1280"
         stop-opacity="0"
         stop-color="#c42482"
         offset="0.773" /></linearGradient><linearGradient
       gradientUnits="userSpaceOnUse"
       y2="721.61499"
       x2="961.18701"
       y1="38.119999"
       x1="655.53101"
       id="linear-gradient-6"><stop
         id="stop1283"
         stop-color="#fff14f"
         offset="0" /><stop
         id="stop1285"
         stop-color="#ffee4c"
         offset="0.268" /><stop
         id="stop1287"
         stop-color="#ffe643"
         offset="0.452" /><stop
         id="stop1289"
         stop-color="#ffd834"
         offset="0.612" /><stop
         id="stop1291"
         stop-color="#ffc41e"
         offset="0.757" /><stop
         id="stop1293"
         stop-color="#ffab02"
         offset="0.892" /><stop
         id="stop1295"
         stop-color="#ffa900"
         offset="0.902" /><stop
         id="stop1297"
         stop-color="#ffa000"
         offset="0.949" /><stop
         id="stop1299"
         stop-color="#ff9100"
         offset="1" /></linearGradient><linearGradient
       gradientUnits="userSpaceOnUse"
       y2="819.96002"
       x2="571.09802"
       y1="431.20999"
       x1="715.88501"
       id="linear-gradient-7"><stop
         id="stop1302"
         stop-color="#ff8e00"
         offset="0" /><stop
         id="stop1304"
         stop-opacity="0.858"
         stop-color="#ff8e00"
         offset="0.04" /><stop
         id="stop1306"
         stop-opacity="0.729"
         stop-color="#ff8e00"
         offset="0.084" /><stop
         id="stop1308"
         stop-opacity="0.628"
         stop-color="#ff8e00"
         offset="0.13" /><stop
         id="stop1310"
         stop-opacity="0.557"
         stop-color="#ff8e00"
         offset="0.178" /><stop
         id="stop1312"
         stop-opacity="0.514"
         stop-color="#ff8e00"
         offset="0.227" /><stop
         id="stop1314"
         stop-opacity="0.5"
         stop-color="#ff8e00"
         offset="0.282" /><stop
         id="stop1316"
         stop-opacity="0.478"
         stop-color="#ff8e00"
         offset="0.389" /><stop
         id="stop1318"
         stop-opacity="0.416"
         stop-color="#ff8e00"
         offset="0.524" /><stop
         id="stop1320"
         stop-opacity="0.314"
         stop-color="#ff8e00"
         offset="0.676" /><stop
         id="stop1322"
         stop-opacity="0.172"
         stop-color="#ff8e00"
         offset="0.838" /><stop
         id="stop1324"
         stop-opacity="0"
         stop-color="#ff8e00"
         offset="1" /></linearGradient><radialGradient
       gradientUnits="userSpaceOnUse"
       gradientTransform="matrix(0.762, 0.034, -0.05, 1.12, 11560.893, 10069.103)"
       r="450.875"
       fx="-14509.281265145226"
       cy="-8329.079"
       cx="-14480.522"
       id="radial-gradient-41"><stop
         id="stop1824"
         stop-color="#ffea00"
         offset="0.045" /><stop
         id="stop1826"
         stop-color="#ffde00"
         offset="0.12" /><stop
         id="stop1828"
         stop-color="#ffbf00"
         offset="0.254" /><stop
         id="stop1830"
         stop-color="#ff8e00"
         offset="0.429" /><stop
         id="stop1832"
         stop-color="#ff272d"
         offset="0.769" /><stop
         id="stop1834"
         stop-color="#e0255a"
         offset="0.872" /><stop
         id="stop1836"
         stop-color="#cc2477"
         offset="0.953" /><stop
         id="stop1838"
         stop-color="#c42482"
         offset="1" /></radialGradient><radialGradient
       gradientUnits="userSpaceOnUse"
       gradientTransform="translate(9921.963 9899.103) scale(1.225 1.225)"
       r="791.229"
       cy="-7921.608"
       cx="-7529.669"
       id="radial-gradient-2-7"><stop
         id="stop1841"
         stop-color="#00ccda"
         offset="0" /><stop
         id="stop1843"
         stop-color="#0083ff"
         offset="0.22" /><stop
         id="stop1845"
         stop-color="#007af9"
         offset="0.261" /><stop
         id="stop1847"
         stop-color="#0060e8"
         offset="0.33" /><stop
         id="stop1849"
         stop-color="#005fe7"
         offset="0.333" /><stop
         id="stop1851"
         stop-color="#2639ad"
         offset="0.438" /><stop
         id="stop1853"
         stop-color="#401e84"
         offset="0.522" /><stop
         id="stop1855"
         stop-color="#4a1475"
         offset="0.566" /></radialGradient><linearGradient
       gradientUnits="userSpaceOnUse"
       y2="104.96"
       x2="384.231"
       y1="731.188"
       x1="575.669"
       id="linear-gradient-1"><stop
         id="stop1858"
         stop-opacity="0.4"
         stop-color="#000f43"
         offset="0" /><stop
         id="stop1860"
         stop-opacity="0.173"
         stop-color="#001962"
         offset="0.485" /><stop
         id="stop1862"
         stop-opacity="0"
         stop-color="#002079"
         offset="1" /></linearGradient><radialGradient
       gradientUnits="userSpaceOnUse"
       gradientTransform="matrix(1.219, 0.123, -0.123, 1.219, 10296.265, 9597.23)"
       r="266.886"
       cy="-6516.556"
       cx="-8260.94"
       id="radial-gradient-3-1"><stop
         id="stop1865"
         stop-color="#ffea00"
         offset="0.003" /><stop
         id="stop1867"
         stop-color="#ff272d"
         offset="0.497" /><stop
         id="stop1869"
         stop-color="#c42482"
         offset="1" /></radialGradient><radialGradient
       gradientUnits="userSpaceOnUse"
       gradientTransform="matrix(1.219, 0.123, -0.123, 1.219, 10296.265, 9597.23)"
       r="445.678"
       cy="-6772.468"
       cx="-8285.087"
       id="radial-gradient-4-1"><stop
         id="stop1872"
         stop-color="#ffe900"
         offset="0.003" /><stop
         id="stop1874"
         stop-color="#ffaf0e"
         offset="0.157" /><stop
         id="stop1876"
         stop-color="#ff7a1b"
         offset="0.316" /><stop
         id="stop1878"
         stop-color="#ff4e26"
         offset="0.472" /><stop
         id="stop1880"
         stop-color="#ff2c2e"
         offset="0.621" /><stop
         id="stop1882"
         stop-color="#ff1434"
         offset="0.762" /><stop
         id="stop1884"
         stop-color="#ff0538"
         offset="0.892" /><stop
         id="stop1886"
         stop-color="#ff0039"
         offset="1" /></radialGradient><radialGradient
       gradientUnits="userSpaceOnUse"
       gradientTransform="matrix(1.219, 0.123, -0.123, 1.219, 10296.265, 9597.23)"
       r="408.958"
       cy="-6359.332"
       cx="-8222.051"
       id="radial-gradient-5-7"><stop
         id="stop1889"
         stop-color="#ff272d"
         offset="0.003" /><stop
         id="stop1891"
         stop-color="#c42482"
         offset="0.497" /><stop
         id="stop1893"
         stop-color="#620700"
         offset="0.986" /></radialGradient><radialGradient
       gradientUnits="userSpaceOnUse"
       r="782.18"
       fy="382.2124050106231"
       fx="778.1665281038617"
       cy="396.041"
       cx="750.189"
       id="radial-gradient-6-0"><stop
         id="stop1896"
         stop-color="#ffea00"
         offset="0.156" /><stop
         id="stop1898"
         stop-color="#ffde00"
         offset="0.231" /><stop
         id="stop1900"
         stop-color="#ffbf00"
         offset="0.365" /><stop
         id="stop1902"
         stop-color="#ff8e00"
         offset="0.541" /><stop
         id="stop1904"
         stop-color="#ff272d"
         offset="0.763" /><stop
         id="stop1906"
         stop-color="#f92433"
         offset="0.796" /><stop
         id="stop1908"
         stop-color="#e91c45"
         offset="0.841" /><stop
         id="stop1910"
         stop-color="#cf0e62"
         offset="0.893" /><stop
         id="stop1912"
         stop-color="#b5007f"
         offset="0.935" /></radialGradient><radialGradient
       gradientUnits="userSpaceOnUse"
       r="923.615"
       cy="3.289"
       cx="691.339"
       id="radial-gradient-7-4"><stop
         id="stop1915"
         stop-color="#ffea00"
         offset="0.279" /><stop
         id="stop1917"
         stop-color="#fd0"
         offset="0.402" /><stop
         id="stop1919"
         stop-color="#ffba00"
         offset="0.63" /><stop
         id="stop1921"
         stop-color="#ff9100"
         offset="0.856" /><stop
         id="stop1923"
         stop-color="#ff6711"
         offset="0.933" /><stop
         id="stop1925"
         stop-color="#ff4a1d"
         offset="0.994" /></radialGradient><linearGradient
       gradientUnits="userSpaceOnUse"
       y2="721.615"
       x2="961.187"
       y1="38.12"
       x1="655.531"
       id="linear-gradient-6-0"><stop
         id="stop1972"
         stop-color="#fff14f"
         offset="0" /><stop
         id="stop1974"
         stop-color="#ffee4c"
         offset="0.268" /><stop
         id="stop1976"
         stop-color="#ffe643"
         offset="0.452" /><stop
         id="stop1978"
         stop-color="#ffd834"
         offset="0.612" /><stop
         id="stop1980"
         stop-color="#ffc41e"
         offset="0.757" /><stop
         id="stop1982"
         stop-color="#ffab02"
         offset="0.892" /><stop
         id="stop1984"
         stop-color="#ffa900"
         offset="0.902" /><stop
         id="stop1986"
         stop-color="#ffa000"
         offset="0.949" /><stop
         id="stop1988"
         stop-color="#ff9100"
         offset="1" /></linearGradient><linearGradient
       gradientUnits="userSpaceOnUse"
       y2="819.96"
       x2="571.098"
       y1="431.21"
       x1="715.885"
       id="linear-gradient-7-8"><stop
         id="stop1991"
         stop-color="#ff8e00"
         offset="0" /><stop
         id="stop1993"
         stop-opacity="0.858"
         stop-color="#ff8e00"
         offset="0.04" /><stop
         id="stop1995"
         stop-opacity="0.729"
         stop-color="#ff8e00"
         offset="0.084" /><stop
         id="stop1997"
         stop-opacity="0.628"
         stop-color="#ff8e00"
         offset="0.13" /><stop
         id="stop1999"
         stop-opacity="0.557"
         stop-color="#ff8e00"
         offset="0.178" /><stop
         id="stop2001"
         stop-opacity="0.514"
         stop-color="#ff8e00"
         offset="0.227" /><stop
         id="stop2003"
         stop-opacity="0.5"
         stop-color="#ff8e00"
         offset="0.282" /><stop
         id="stop2005"
         stop-opacity="0.478"
         stop-color="#ff8e00"
         offset="0.389" /><stop
         id="stop2007"
         stop-opacity="0.416"
         stop-color="#ff8e00"
         offset="0.524" /><stop
         id="stop2009"
         stop-opacity="0.314"
         stop-color="#ff8e00"
         offset="0.676" /><stop
         id="stop2011"
         stop-opacity="0.172"
         stop-color="#ff8e00"
         offset="0.838" /><stop
         id="stop2013"
         stop-opacity="0"
         stop-color="#ff8e00"
         offset="1" /></linearGradient></defs><sodipodi:namedview
     pagecolor="#ffffff"
     bordercolor="#666666"
     borderopacity="1"
     objecttolerance="10"
     gridtolerance="10"
     guidetolerance="10"
     inkscape:pageopacity="0"
     inkscape:pageshadow="2"
     inkscape:window-width="1920"
     inkscape:window-height="1053"
     id="namedview9"
     showgrid="false"
     inkscape:zoom="0.53486282"
     inkscape:cx="191.29463"
     inkscape:cy="753.69239"
     inkscape:window-x="0"
     inkscape:window-y="27"
     inkscape:window-maximized="1"
     inkscape:current-layer="whatsapp-logo-notext" /><style
     type="text/css"
     id="style2">
                            .logo_white{fill:#FFFFFF;}
                            .logo_green{fill:#00E676;}
                        </style><g
     id="g1538"
     transform="matrix(0.8391322,0,0,0.81300793,792.55396,538.77485)"><g
       transform="translate(-155.17998,-59.828424)"
       id="g1501"><g
         id="g1358"
         transform="translate(-823.91253,-604.514)"><path
           id="path1331"
           style="fill:url(#radial-gradient)"
           d="m 805.285,93.558 c -23.947,27.884 -35.1,90.639 -10.818,154.256 24.282,63.617 61.5,49.8 84.7,114.673 30.623,85.6 16.369,200.589 16.369,200.589 0,0 36.814,106.609 62.468,-6.633 C 1014.787,343.74 805.285,145.937 805.285,93.558 Z"
           inkscape:connector-curvature="0" /><path
           style="fill:url(#radial-gradient-2)"
           d="m 513.072,976.638 c 245.236,0 443.9,-199.739 443.9,-446.028 C 956.972,284.321 758.308,84.583 513.31,84.583 268.312,84.583 69.65,284.322 69.65,530.61 69.175,777.137 268.073,976.638 513.072,976.638 Z"
           data-name="&lt;Path&gt;"
           id="_Path_"
           inkscape:connector-curvature="0" /><path
           id="path1334"
           style="fill:url(#linear-gradient)"
           d="m 845.675,805.636 a 246.888,246.888 0 0 1 -30.123,18.183 704,704 0 0 0 38.3,-62.961 c 9.46,-10.47 18.126,-20.648 25.188,-31.653 3.437,-5.407 7.313,-12.079 11.416,-19.819 24.921,-44.9 52.4,-117.563 53.179,-192.2 v -0.18 c 0.018,-1.837 0.029,-3.675 0.014,-5.515 a 257.6,257.6 0 0 0 -5.712,-55.748 c 0.2,1.431 0.376,2.861 0.556,4.291 -0.221,-1.1 -0.407,-2.212 -0.644,-3.314 0.366,2.034 0.66,4 0.976,5.983 5.094,43.217 1.466,85.372 -16.682,116.45 -0.286,0.454 -0.58,0.879 -0.869,1.323 9.41,-47.234 12.558,-99.387 2.088,-151.6 0,0 -4.187,-25.383 -35.376,-102.441 -17.952,-44.353 -49.833,-80.716 -78,-107.207 -24.69,-30.546 -47.114,-51.045 -59.475,-64.06 -25.821,-27.189 -36.643,-47.569 -41.087,-60.867 -3.853,-1.932 -53.135,-49.807 -57.05,-51.631 -21.511,33.352 -89.162,137.675 -56.981,235.146 14.584,44.172 51.467,90.017 90.067,115.736 1.695,1.936 22.969,25.042 33.086,77.157 10.446,53.842 4.954,95.855 -16.546,157.983 -25.286,54.505 -90.067,108.388 -150.724,113.9 -129.676,11.781 -177.149,-65.108 -177.149,-65.108 46.336,18.525 97.568,14.65 128.724,-4.556 31.4,-19.425 50.394,-33.827 65.81,-28.148 15.2,5.653 27.3,-10.756 16.442,-27.767 a 78.5,78.5 0 0 0 -79.4,-34.573 c -31.433,5.109 -60.226,30.009 -101.412,5.894 a 85.528,85.528 0 0 1 -7.729,-5.062 c -2.715,-1.785 8.826,2.717 6.133,0.688 -8.015,-4.354 -22.2,-13.842 -25.88,-17.217 -0.613,-0.562 6.219,2.179 5.606,1.616 -38.51,-31.712 -33.7,-53.134 -32.49,-66.57 0.969,-10.749 7.964,-24.523 19.751,-30.11 5.693,3.107 9.24,5.479 9.24,5.479 0,0 -2.428,-4.961 -3.741,-7.576 0.46,-0.2 0.9,-0.147 1.358,-0.342 4.664,2.251 14.977,8.1 20.407,11.667 7.072,4.988 9.326,9.436 9.326,9.436 0,0 1.862,-1.025 0.485,-5.375 -0.5,-1.784 -2.647,-7.453 -9.652,-13.174 l 0.438,0.049 a 81.2,81.2 0 0 1 11.867,8.241 c 1.975,-7.181 5.527,-14.679 4.746,-28.092 -0.477,-9.431 -0.257,-11.873 -1.919,-15.515 -1.488,-3.128 0.834,-4.348 3.418,-1.1 a 32.826,32.826 0 0 0 -2.208,-7.4 l 0.022,-0.244 c 3.225,-11.236 68.248,-40.461 72.981,-43.877 a 67.355,67.355 0 0 0 19.132,-20.8 c 3.617,-5.763 6.337,-13.848 7,-26.112 0.355,-8.844 -3.759,-14.734 -69.507,-21.618 -17.981,-1.771 -28.531,-14.8 -34.526,-26.823 -1.094,-2.59 -2.209,-4.937 -3.325,-7.282 a 58,58 0 0 1 -2.558,-8.431 c 10.749,-30.873 28.81,-56.977 55.367,-76.7 1.447,-1.318 -5.782,0.338 -4.336,-0.98 1.687,-1.538 12.706,-5.977 14.787,-6.977 2.542,-1.2 -10.882,-6.9 -22.732,-5.512 -12.069,1.36 -14.632,2.8 -21.073,5.531 2.673,-2.661 11.173,-6.149 9.18,-6.126 -13.011,1.995 -29.179,9.558 -43,18.124 a 10.731,10.731 0 0 1 0.835,-4.348 c -6.441,2.732 -22.26,13.788 -26.865,23.142 a 44.329,44.329 0 0 0 0.266,-5.4 84.483,84.483 0 0 0 -13.195,13.818 l -0.241,0.219 c -37.358,-15.05 -70.233,-16.024 -98.053,-9.276 -6.086,-6.112 -9.059,-1.644 -22.907,-32.069 -0.941,-1.832 0.722,1.809 0,0 -2.278,-5.9 1.389,7.872 0,0 -23.284,18.372 -53.92,39.193 -68.626,53.89 -0.182,0.586 17.156,-4.9 0,0 -6.008,1.716 -5.6,5.281 -6.513,37.5 -0.22,2.443 -0.025,5.179 -0.223,7.378 -11.748,14.968 -19.749,27.643 -22.775,34.211 -15.193,26.18 -31.926,66.992 -48.146,131.551 A 334.364,334.364 0 0 1 110.2,400.365 C 96.712,434.632 83.673,488.443 81.066,571.31 a 483.614,483.614 0 0 1 12.533,-50.66 473.038,473.038 0 0 0 34.74,201.061 c 9.329,22.821 24.76,57.455 51.029,95.4 82.533,86.839 198.945,140.9 327.852,140.9 134.572,10e-4 255.415,-58.878 338.455,-152.375 z"
           inkscape:connector-curvature="0" /><path
           id="path1336"
           style="fill:url(#radial-gradient-3)"
           d="m 746.1,868.708 c 162.87,-18.86 234.969,-186.7 142.381,-190 -83.633,-2.673 -219.527,198.9 -142.381,190 z"
           inkscape:connector-curvature="0" /><path
           id="path1338"
           style="fill:url(#radial-gradient-4)"
           d="m 900.207,644.424 c 112.056,-65.214 82.839,-206.08 82.839,-206.08 0,0 -43.246,50.238 -72.625,130.32 -29.021,79.299 -77.584,115.148 -10.214,75.76 z"
           inkscape:connector-curvature="0" /><path
           id="path1340"
           style="fill:url(#radial-gradient-5)"
           d="m 544.474,952.062 c 156.227,49.851 290.5,-73.22 207.733,-114.32 -75.251,-37.066 -281.883,90.748 -207.733,114.32 z"
           inkscape:connector-curvature="0" /><path
           id="path1342"
           style="fill:url(#radial-gradient-6)"
           d="m 911.849,704.234 c 3.8,-5.363 8.94,-22.535 13.48,-30.211 27.582,-44.523 27.777,-80.023 27.777,-80.836 16.659,-83.219 15.148,-117.2 4.9,-180.043 -8.251,-50.6 -44.322,-123.092 -75.57,-158 -32.2,-35.965 -9.514,-24.247 -40.692,-50.518 C 814.417,174.333 787.921,144.335 773.491,132.271 669.215,45.094 671.571,26.577 673.579,23.42 c -0.339,0.371 -0.837,0.922 -1.472,1.643 C 670.872,20.14 670,16 670,16 c 0,0 -57,57 -69,152 -7.834,62.021 15.383,126.676 49,168 a 381.367,381.367 0 0 0 59,58 v -0.026 c 25.4,36.477 39.38,81.489 39.38,129.909 0,121.244 -98.341,219.531 -219.652,219.531 a 220.455,220.455 0 0 1 -49.134,-5.519 c -57.236,-10.908 -90.288,-39.781 -106.772,-59.382 -9.447,-11.234 -13.464,-19.423 -13.464,-19.423 51.283,18.371 107.986,14.528 142.468,-4.518 34.749,-19.265 55.774,-33.546 72.837,-27.915 16.82,5.606 30.211,-10.667 18.2,-27.536 -11.771,-16.845 -42.4,-40.97 -87.878,-34.286 -34.789,5.067 -66.657,29.76 -112.24,5.845 a 96.313,96.313 0 0 1 -8.554,-5.02 c -3.005,-1.771 9.768,2.695 6.787,0.682 -8.87,-4.318 -24.573,-13.728 -28.643,-17.074 -0.679,-0.557 6.883,2.161 6.2,1.6 -42.621,-31.449 -37.3,-52.693 -35.959,-66.018 1.073,-10.66 8.814,-24.32 21.859,-29.86 6.3,3.081 10.226,5.433 10.226,5.433 0,0 -2.688,-4.92 -4.141,-7.513 0.509,-0.194 0.994,-0.145 1.5,-0.339 5.162,2.232 16.576,8.029 22.586,11.57 7.827,4.947 10.322,9.358 10.322,9.358 0,0 2.061,-1.016 0.536,-5.33 -0.557,-1.769 -2.929,-7.391 -10.682,-13.065 l 0.485,0.049 a 90.851,90.851 0 0 1 13.134,8.173 c 2.186,-7.121 6.118,-14.557 5.253,-27.859 -0.528,-9.352 -0.284,-11.775 -2.124,-15.386 -1.647,-3.1 0.924,-4.312 3.782,-1.088 a 30.038,30.038 0 0 0 -2.444,-7.343 l 0.025,-0.242 c 3.57,-11.143 75.535,-40.125 80.773,-43.513 a 70.31,70.31 0 0 0 21.175,-20.63 c 4,-5.715 7.014,-13.733 7.748,-25.895 0.246,-5.48 -1.441,-9.817 -20.5,-13.965 -11.439,-2.49 -29.136,-4.913 -56.433,-7.474 -19.9,-1.756 -31.577,-14.676 -38.212,-26.6 -1.211,-2.569 -2.445,-4.9 -3.68,-7.222 a 53.108,53.108 0 0 1 -2.831,-8.36 158.47,158.47 0 0 1 61.279,-76.063 c 1.6,-1.308 -6.4,0.335 -4.8,-0.972 1.868,-1.525 14.063,-5.927 16.367,-6.919 2.813,-1.186 -12.044,-6.84 -25.159,-5.466 -13.357,1.349 -16.194,2.776 -23.323,5.486 2.959,-2.639 12.366,-6.1 10.161,-6.075 -14.4,1.978 -32.3,9.479 -47.6,17.973 a 9.676,9.676 0 0 1 0.924,-4.312 c -7.129,2.709 -24.637,13.674 -29.734,22.95 a 39.488,39.488 0 0 0 0.294,-5.354 88.678,88.678 0 0 0 -14.6,13.7 l -0.267,0.218 c -41.347,-14.925 -77.732,-15.891 -108.522,-9.2 -6.736,-6.061 -17.566,-15.226 -32.892,-45.4 -1.041,-1.817 -1.6,3.755 -2.4,1.961 -5.955,-13.813 -9.553,-36.444 -8.962,-52.046 0,0 -12.318,5.614 -22.513,29.06 -1.893,4.215 -3.107,6.54 -4.32,8.865 -0.558,0.678 1.265,-7.7 0.974,-7.244 -1.772,3 -6.356,7.192 -8.371,12.618 -1.384,4.021 -3.325,6.273 -4.564,11.288 l -0.291,0.46 c -0.1,-1.478 0.367,-6.081 0.027,-5.137 a 236.1,236.1 0 0 0 -12.308,29.841 c -5.489,18.046 -11.879,42.61 -12.892,74.565 -0.244,2.423 -0.027,5.136 -0.247,7.317 -13,14.844 -21.858,27.413 -25.207,33.928 C 75.18,329.762 56.66,370.236 38.707,434.259 A 319.143,319.143 0 0 1 67.245,384.27 C 52.316,418.253 37.885,471.618 35,553.8 a 438.522,438.522 0 0 1 13.872,-50.24 c -2.578,54.8 3.805,122.74 38.449,199.393 20.57,45.087 67.921,136.649 183.62,208.1 l -0.01,0.007 c 0,0 39.36,29.3 107.017,51.259 5,1.814 10.065,3.6 15.234,5.333 -1.622,-0.655 -3.191,-1.344 -4.715,-2.052 a 484.883,484.883 0 0 0 138.8,20.4 c 175.18,0.149 226.846,-70.2 226.846,-70.2 0,0 -0.182,0.137 -0.513,0.377 q 3.708,-3.491 7.143,-7.257 c -27.639,26.1 -90.715,27.832 -114.3,25.949 40.223,-11.813 66.691,-21.806 118.175,-41.519 q 9.037,-3.35 18.482,-7.64 c 0.681,-0.3 1.368,-0.625 2.052,-0.936 1.249,-0.582 2.486,-1.132 3.747,-1.744 a 349.205,349.205 0 0 0 70.262,-43.987 c 51.7,-41.3 62.949,-81.557 68.829,-108.1 -0.82,2.544 -3.375,8.475 -5.17,12.316 -13.315,28.482 -42.841,45.959 -74.908,60.948 A 688.993,688.993 0 0 0 890.3,741.773 c 10.467,-10.383 13.733,-26.625 21.549,-37.539 z"
           inkscape:connector-curvature="0" /><path
           id="path1344"
           style="fill:url(#radial-gradient-7)"
           d="m 848.921,802.982 c 21.08,-23.241 40.01,-49.824 54.349,-79.968 36.9,-77.582 93.952,-206.58 49.018,-341.306 C 916.775,275.225 868.016,217 806.107,160.122 705.563,67.756 677.482,26.521 677.482,2 677.482,2 561.393,131.409 611.74,266.381 662.087,401.353 765.2,396.405 833.419,537.255 913.694,703 768.47,883.869 648.375,934.493 c 7.353,-1.633 266.97,-60.383 280.614,-208.882 -0.309,2.731 -6.159,43.803 -80.068,77.371 z"
           inkscape:connector-curvature="0" /><path
           id="path1346"
           style="fill:url(#linear-gradient-2)"
           d="m 512.592,321.373 c 0.393,-8.77 -4.156,-14.66 -76.682,-21.463 -29.839,-2.755 -41.265,-30.334 -44.748,-41.941 -10.61,27.565 -14.991,56.49 -12.636,91.477 1.61,22.92 17.009,47.521 24.37,61.965 0,0 1.636,-2.126 2.391,-2.912 13.861,-14.431 71.936,-36.419 77.392,-39.541 6.014,-3.799 28.903,-20.523 29.913,-47.585 z"
           inkscape:connector-curvature="0" /><path
           id="path1348"
           style="fill:url(#linear-gradient-3)"
           d="m 193.314,158.471 c -1.041,-1.818 -1.6,3.754 -2.4,1.961 -5.955,-13.813 -9.578,-36.2 -8.72,-52.022 0,0 -12.318,5.614 -22.513,29.06 -1.893,4.215 -3.107,6.54 -4.32,8.865 -0.558,0.678 1.265,-7.7 0.974,-7.244 -1.771,3 -6.355,7.192 -8.346,12.375 -1.651,4.239 -3.349,6.515 -4.613,11.772 -0.389,1.429 0.392,-6.323 0.052,-5.379 -23.711,45.825 -28.237,115.114 -25.738,112.184 50.478,-53.9 108.325,-66.683 108.325,-66.683 -6.155,-4.534 -19.528,-17.625 -32.7,-44.889 z"
           inkscape:connector-curvature="0" /><path
           id="path1350"
           style="fill:url(#linear-gradient-4)"
           d="m 384.844,722.1 c -69.724,-29.769 -148.992,-71.755 -146,-167.138 4.075,-125.619 117.145,-100.791 117.145,-100.791 -4.267,1.039 -15.675,9.162 -19.718,17.82 -4.273,10.827 -12.069,35.276 11.551,60.9 37.089,40.192 -76.2,95.356 98.663,199.567 4.41,2.4 -40.991,-1.43 -61.639,-10.358 z"
           inkscape:connector-curvature="0" /><path
           id="path1352"
           style="fill:url(#linear-gradient-5)"
           d="m 360.074,659.5 c 49.442,17.207 107.04,14.189 141.523,-4.858 23.085,-12.851 52.7,-33.434 70.922,-28.353 -15.777,-6.236 -27.726,-9.15 -42.1,-9.862 -2.448,0 -5.382,-0.052 -8.048,-0.32 a 136.228,136.228 0 0 0 -15.757,0.863 c -8.9,0.818 -18.766,6.433 -27.735,5.532 -0.485,-0.049 8.7,-3.774 7.953,-3.605 -4.752,0.991 -9.915,1.205 -15.37,1.881 -3.467,0.386 -6.449,0.82 -9.891,0.963 -102.982,8.733 -190.017,-55.813 -190.017,-55.813 -7.408,24.95 33.166,74.3 88.521,93.572 z"
           inkscape:connector-curvature="0" /><path
           id="path1354"
           style="fill:url(#linear-gradient-6)"
           d="M 848.738,803.646 C 952.9,701.376 1005.6,577.061 983.321,437.627 c 0,0 8.9,71.5 -24.848,144.628 16.213,-71.393 18.1,-160.114 -24.975,-251.988 C 876.005,207.636 781.45,143.109 745.351,116.189 690.656,75.4 667.983,33.87 667.574,25.3 c -16.339,33.477 -65.766,148.2 -5.31,247 56.64,92.564 145.865,120.039 208.328,204.947 115.075,156.42 -21.854,326.399 -21.854,326.399 z"
           inkscape:connector-curvature="0" /><path
           id="path1356"
           style="fill:url(#linear-gradient-7)"
           d="M 833.814,537.551 C 797.412,462.35 751.978,429.55 709,394 c 5,7 6.232,9.473 9,14 37.827,40.316 93.607,138.656 53.11,262.107 C 694.881,902.482 389.967,793.057 358,762.319 370.932,896.808 596.036,961.164 742.6,873.949 826,795 893.468,660.788 833.814,537.551 Z"
           inkscape:connector-curvature="0" /></g><g
         id="g822"
         transform="matrix(0,13.623978,-13.513514,0,134.75876,-216.92227)"><path
           id="path4"
           d="m 10.7,32.8 0.6,0.3 c 2.5,1.5 5.3,2.2 8.1,2.2 v 0 c 8.8,0 16,-7.2 16,-16 0,-4.2 -1.7,-8.3 -4.7,-11.3 -3,-3 -7,-4.7 -11.3,-4.7 -8.8,0 -16,7.2 -15.9,16.1 0,3 0.9,5.9 2.4,8.4 l 0.4,0.6 -1.6,5.9 z"
           class="logo_green"
           inkscape:connector-curvature="0"
           style="fill:#00e676" /><path
           id="path6"
           d="M 32.4,6.4 C 29,2.9 24.3,1 19.5,1 9.3,1 1.1,9.3 1.2,19.4 c 0,3.2 0.9,6.3 2.4,9.1 L 1,38 10.7,35.5 c 2.7,1.5 5.7,2.2 8.7,2.2 v 0 c 10.1,0 18.3,-8.3 18.3,-18.4 0,-4.9 -1.9,-9.5 -5.3,-12.9 z M 19.5,34.6 v 0 c -2.7,0 -5.4,-0.7 -7.7,-2.1 L 11.2,32.2 5.4,33.7 6.9,28 6.5,27.4 C 2.1,20.3 4.2,10.9 11.4,6.5 c 7.2,-4.4 16.5,-2.3 20.9,4.9 4.4,7.2 2.3,16.5 -4.9,20.9 -2.3,1.5 -5.1,2.3 -7.9,2.3 z M 28.3,23.5 27.2,23 c 0,0 -1.6,-0.7 -2.6,-1.2 -0.1,0 -0.2,-0.1 -0.3,-0.1 -0.3,0 -0.5,0.1 -0.7,0.2 v 0 c 0,0 -0.1,0.1 -1.5,1.7 -0.1,0.2 -0.3,0.3 -0.5,0.3 h -0.1 c -0.1,0 -0.3,-0.1 -0.4,-0.2 l -0.5,-0.2 v 0 C 19.5,23 18.5,22.4 17.7,21.6 17.5,21.4 17.2,21.2 17,21 16.3,20.3 15.6,19.5 15.1,18.6 L 15,18.4 c -0.1,-0.1 -0.1,-0.2 -0.2,-0.4 0,-0.2 0,-0.4 0.1,-0.5 0,0 0.4,-0.5 0.7,-0.8 0.2,-0.2 0.3,-0.5 0.5,-0.7 0.2,-0.3 0.3,-0.7 0.2,-1 C 16.2,14.5 15,11.8 14.7,11.2 14.5,10.9 14.3,10.8 14,10.7 h -0.3 c -0.2,0 -0.5,0 -0.8,0 -0.2,0 -0.4,0.1 -0.6,0.1 l -0.1,0.1 c -0.2,0.1 -0.4,0.3 -0.6,0.4 -0.2,0.2 -0.3,0.4 -0.5,0.6 -0.7,0.9 -1.1,2 -1.1,3.1 v 0 c 0,0.8 0.2,1.6 0.5,2.3 l 0.1,0.3 c 0.9,1.9 2.1,3.6 3.7,5.1 l 0.4,0.4 c 0.3,0.3 0.6,0.5 0.8,0.8 2.1,1.8 4.5,3.1 7.2,3.8 0.3,0.1 0.7,0.1 1,0.2 v 0 c 0.3,0 0.7,0 1,0 0.5,0 1.1,-0.2 1.5,-0.4 0.3,-0.2 0.5,-0.2 0.7,-0.4 l 0.2,-0.2 c 0.2,-0.2 0.4,-0.3 0.6,-0.5 0.2,-0.2 0.4,-0.4 0.5,-0.6 0.2,-0.4 0.3,-0.9 0.4,-1.4 0,-0.2 0,-0.5 0,-0.7 0,0 -0.1,-0.1 -0.3,-0.2 z"
           class="logo_white"
           inkscape:connector-curvature="0"
           style="fill:#ffffff" /></g></g><g
       id="flowRoot1503"
       style="font-style:normal;font-weight:normal;font-size:40px;line-height:1.25;font-family:sans-serif;letter-spacing:0px;word-spacing:0px;fill:#ffffff;fill-opacity:1;stroke:none"
       transform="rotate(90,-186.43961,63.754099)"
       aria-label=":)"><path
         id="path1511"
         style="font-style:normal;font-variant:normal;font-weight:normal;font-stretch:normal;font-size:192px;font-family:sans-serif;-inkscape-font-specification:'sans-serif, Normal';font-variant-ligatures:normal;font-variant-caps:normal;font-variant-numeric:normal;font-feature-settings:normal;text-align:start;writing-mode:lr-tb;text-anchor:start;fill:#ffffff;fill-opacity:1"
         d="m -254.5918,110.41211 h 19.78125 v 23.8125 h -19.78125 z m 0,-75.468751 h 19.78125 v 23.8125 h -19.78125 z"
         inkscape:connector-curvature="0" /><path
         id="path1513"
         style="font-style:normal;font-variant:normal;font-weight:normal;font-stretch:normal;font-size:192px;font-family:sans-serif;-inkscape-font-specification:'sans-serif, Normal';font-variant-ligatures:normal;font-variant-caps:normal;font-variant-numeric:normal;font-feature-settings:normal;text-align:start;writing-mode:lr-tb;text-anchor:start;fill:#ffffff;fill-opacity:1"
         d="m -196.8418,-11.462891 h 15 q 14.0625,22.125 21,43.3125 7.03125,21.1875 7.03125,42.09375 0,21 -7.03125,42.281251 -6.9375,21.28125 -21,43.3125 h -15 q 12.46875,-21.46875 18.5625,-42.65625 6.1875,-21.281251 6.1875,-42.937501 0,-21.65625 -6.1875,-42.75 -6.09375,-21.09375 -18.5625,-42.65625 z"
         inkscape:connector-curvature="0" /></g></g></svg>